<svg xmlns="http://www.w3.org/2000/svg" width="current" height="current" fill="none" viewBox="0 0 25 18"><path fill="current" d="M1 10C0.447715 10 0 9.55228 0 9C0 8.44772 0.447715 8 1 8H23.1538C23.7061 8 24.1538 8.44772 24.1538 9C24.1538 9.55228 23.7061 10 23.1538 10H1ZM1.07692 18C0.524638 18 0.0769231 17.5523 0.0769231 17C0.0769231 16.4477 0.524638 16 1.07692 16H23.1569C23.7092 16 24.1569 16.4477 24.1569 17C24.1569 17.5523 23.7092 18 23.1569 18H1.07692ZM1.07692 2C0.524638 2 0.0769231 1.55229 0.0769231 1C0.0769231 0.447716 0.524638 0 1.07692 0H23.1569C23.7092 0 24.1569 0.447716 24.1569 1C24.1569 1.55229 23.7092 2 23.1569 2H1.07692Z"/></svg>