<svg width="635" height="504" viewBox="0 0 635 504" fill="none" xmlns="http://www.w3.org/2000/svg">
<path fill-rule="evenodd" clip-rule="evenodd" d="M271.097 137.51C272.261 137.122 273.425 136.733 274.201 136.345C279.634 129.353 285.454 122.749 292.439 117.31C302.14 108.764 313.393 102.16 325.422 97.8869C331.631 95.5561 337.839 93.6138 344.048 92.4484C382.463 85.0676 421.655 97.4985 453.862 118.864C490.337 143.337 518.664 179.464 536.513 219.088C552.423 255.215 560.184 295.227 555.527 334.462C551.647 369.035 537.289 402.443 510.515 424.974C500.814 433.52 489.561 439.736 477.532 444.397C472.488 446.339 467.055 447.893 461.623 449.059C449.205 458.77 434.46 466.151 418.939 471.59L418.163 471.978H417.387C375.091 482.855 332.795 478.193 295.155 459.159C278.47 473.143 262.172 484.797 249.367 491.401C241.218 495.674 231.518 497.228 218.712 492.178L152.358 465.374C129.464 456.051 135.285 452.943 144.986 451.389C162.447 447.893 174.476 447.893 192.714 442.066C209.4 436.628 226.861 428.47 243.547 420.312C238.502 414.874 233.458 409.435 229.189 403.608C206.683 374.862 190.774 339.9 184.565 303.773C178.745 269.2 181.849 232.684 197.758 201.218C213.668 170.918 239.278 149.553 271.097 137.51ZM458.906 436.239C344.048 477.028 181.073 266.092 284.678 142.56C284.678 142.56 284.678 143.726 284.29 145.668C271.097 164.314 263.336 186.457 260.62 209.376C256.352 245.892 264.113 283.961 278.858 317.369C295.543 354.662 322.318 388.847 356.465 411.766C385.568 431.189 421.267 443.232 456.578 436.239C456.966 436.239 457.742 436.239 458.518 435.851L458.906 436.239ZM332.019 115.368C397.209 90.8946 480.636 141.006 519.052 226.857C557.467 313.096 535.737 402.443 470.935 426.916C405.745 451.001 322.318 401.278 283.902 315.038C245.487 229.188 267.217 139.841 332.019 115.368ZM398.761 245.892C407.298 242.784 418.163 249.388 423.207 260.653C427.863 271.53 425.147 283.184 416.998 286.292C408.462 289.4 397.597 283.184 392.552 271.919C387.896 260.653 390.612 249.388 398.761 245.892ZM475.592 252.884C491.113 247.057 510.903 258.711 520.216 279.3C529.141 299.888 524.096 320.865 508.575 326.692C493.053 332.519 473.264 320.865 464.339 300.277C455.026 279.688 460.458 258.711 475.592 252.884ZM349.092 300.277C364.614 294.45 384.404 306.492 393.716 326.692C402.641 347.281 397.597 368.258 382.075 374.085C366.554 379.912 346.764 368.258 337.839 347.669C328.526 327.081 333.571 306.104 349.092 300.277ZM437.564 167.034C453.086 161.595 472.876 173.249 482.188 193.838C491.113 214.038 486.069 235.403 470.547 241.23C455.026 247.057 435.236 235.015 425.923 214.815C416.999 194.226 422.043 172.861 437.564 167.034ZM311.065 214.426C326.586 208.988 346.376 220.642 355.689 241.23C364.614 261.43 359.569 282.796 344.048 288.623C328.526 294.45 308.737 282.407 299.424 262.207C290.499 241.619 295.543 220.253 311.065 214.426ZM427.863 315.038C443.385 309.212 463.175 321.254 472.1 341.454C481.412 362.043 476.368 383.02 460.847 388.847C445.325 394.674 425.535 383.02 416.222 362.431C407.298 341.842 412.342 320.865 427.863 315.038ZM351.809 144.503C367.33 138.676 387.12 150.718 396.433 170.918C405.357 191.507 400.313 212.872 384.792 218.699C369.27 224.138 349.48 212.484 340.556 191.895C331.243 171.695 336.287 150.33 351.809 144.503ZM413.118 454.497C375.091 463.82 340.167 459.547 310.289 445.951C321.93 435.851 332.795 424.974 342.884 414.874C345.212 416.428 347.54 418.37 350.256 419.924C363.838 429.247 379.359 437.016 395.269 441.678C406.91 445.174 419.327 447.116 431.356 446.728C425.535 449.447 419.715 452.166 413.118 454.497ZM388.672 362.431C369.27 358.935 352.197 348.058 339.003 332.131C338.615 329.412 338.615 326.692 338.615 324.362C351.032 341.066 368.882 354.273 390.612 358.158C390.224 359.712 389.448 361.266 388.672 362.431ZM316.109 276.192C315.333 263.373 317.273 250.553 322.706 238.899C323.094 238.511 323.094 238.123 323.482 237.734C323.094 237.734 323.094 237.734 322.706 237.734C314.169 240.842 307.184 245.115 301.364 250.165C300.588 245.892 300.2 241.619 300.588 237.734C301.364 231.907 303.692 226.469 307.961 222.584C309.513 221.419 311.065 220.253 313.005 219.865C313.781 219.476 314.945 219.088 315.721 218.699C322.318 217.534 328.914 220.253 334.347 223.749C335.511 224.526 336.675 225.303 337.451 226.08C323.87 240.065 318.826 259.877 321.154 280.077C321.154 279.688 320.766 279.688 320.378 279.688C319.214 278.523 317.661 277.357 316.109 276.192ZM347.928 153.437C363.45 159.264 378.583 167.81 393.328 178.299C395.269 183.738 396.045 189.564 395.269 195.391C394.492 200.441 392.94 205.492 389.448 209.376C380.523 207.434 371.986 207.822 363.062 210.542C362.674 210.153 361.897 209.765 361.509 209.376C354.137 204.715 348.704 197.722 345.212 189.953C342.108 182.961 340.556 175.191 341.332 167.81C342.108 162.372 344.048 156.933 347.928 153.437ZM430.192 210.93C437.176 217.922 443.773 225.692 449.593 233.849C448.817 233.072 448.041 232.684 447.265 232.296C439.893 227.246 434.46 220.253 430.968 212.484C430.58 212.095 430.58 211.318 430.192 210.93ZM469.771 264.15C480.248 282.796 488.009 302.219 491.889 321.254C489.561 320.477 487.233 318.923 485.293 317.758C478.308 313.096 472.488 305.715 468.995 297.946C466.279 291.342 464.339 283.573 465.503 275.804C465.891 271.53 467.055 267.646 469.771 264.15ZM280.022 345.727C285.454 358.546 293.215 372.143 304.856 383.797C293.991 391.177 278.082 401.278 260.232 411.378C208.235 360.1 185.729 278.523 209.788 218.699C225.309 181.018 247.039 159.653 271.873 150.33C232.682 207.822 242.383 280.077 276.142 339.123C277.306 341.454 278.858 343.396 280.022 345.727ZM454.638 326.692C449.593 339.123 439.505 349.612 423.983 356.993C422.819 357.381 421.655 357.77 420.491 357.77C420.491 358.546 420.879 359.323 421.267 360.1C424.759 367.87 430.192 375.25 437.176 379.912C442.609 383.408 449.593 386.127 456.19 384.574C456.966 384.574 458.13 384.185 458.906 383.797C460.846 383.408 462.399 382.243 463.951 381.077C468.219 377.193 470.547 371.366 471.323 365.927C472.1 358.546 470.547 350.389 467.443 343.785C464.339 337.181 460.07 331.354 454.638 326.692Z" fill="white"/>
<path d="M603.913 226.119C603.209 217.901 609.307 210.751 617.481 210.055C625.661 209.352 632.859 215.439 633.525 223.622C634.206 231.789 628.145 238.993 619.966 239.67" stroke="white" stroke-width="2.6066" stroke-linecap="round"/>
<path d="M615.324 236.024C622.849 240.981 624.894 251.071 619.924 258.559C615 266.075 604.894 268.134 597.411 263.15C589.936 258.221 587.85 248.121 592.807 240.659" stroke="white" stroke-width="2.6066" stroke-linecap="round"/>
<path d="M590.587 244.956C583.357 244.109 578.23 237.567 579.09 230.355C579.912 223.161 586.468 218.008 593.662 218.873C600.856 219.738 606.027 226.254 605.158 233.449" stroke="white" stroke-width="2.6066" stroke-linecap="round"/>
<path d="M94.6839 394.621C90.5142 385.337 94.7022 374.525 103.939 370.383C113.178 366.231 124.042 370.385 128.152 379.645C132.274 388.878 128.151 399.738 118.902 403.861" stroke="white" stroke-width="2.6066" stroke-linecap="round"/>
<path d="M112.01 401.506C122.794 404.212 129.288 415.13 126.552 425.876C123.88 436.636 112.95 443.152 102.204 440.398C91.4896 437.704 84.9443 426.792 87.676 416.081" stroke="white" stroke-width="2.6066" stroke-linecap="round"/>
<path d="M86.8409 421.99C78.0757 423.95 69.439 418.421 67.501 409.671C65.5258 400.958 71.0606 392.284 79.7928 390.36C88.5231 388.435 97.2008 393.917 99.1209 402.65" stroke="white" stroke-width="2.6066" stroke-linecap="round"/>
<path d="M460.191 38.5467C454.615 37.7122 450.827 32.5243 451.66 26.9785C452.489 21.4285 457.677 17.6068 463.224 18.4612C468.762 19.3027 472.592 24.4746 471.746 30.0205" stroke="white" stroke-width="2.6066" stroke-linecap="round"/>
<path d="M468.586 32.5292C473.075 28.3113 480.108 28.5508 484.3 33.0422C488.516 37.5078 488.284 44.5537 483.784 48.7395C479.322 52.9286 472.275 52.7147 468.099 48.2359" stroke="white" stroke-width="2.6066" stroke-linecap="round"/>
<path d="M470.605 50.3935C468.896 55.0665 463.733 57.4385 459.074 55.7236C454.421 54.0372 452.033 48.8612 453.749 44.2143C455.464 39.568 460.616 37.1626 465.263 38.8809" stroke="white" stroke-width="2.6066" stroke-linecap="round"/>
<path d="M55.9536 117.498C51.7374 121.242 45.3278 120.821 41.6065 116.626C37.8794 112.431 38.2736 105.999 42.4863 102.291C46.6834 98.5809 53.1077 98.9588 56.8208 103.164" stroke="white" stroke-width="2.6066" stroke-linecap="round"/>
<path d="M56.72 107.197C56.3619 101.048 61.056 95.8048 67.1899 95.4689C73.3206 95.0968 78.578 99.7935 78.9043 105.931C79.2573 112.041 74.5747 117.311 68.46 117.643" stroke="white" stroke-width="2.6066" stroke-linecap="round"/>
<path d="M71.7217 117.104C74.2114 121.412 72.7211 126.895 68.4173 129.37C64.1394 131.859 58.6367 130.372 56.1714 126.076C53.7059 121.78 55.1642 116.284 59.4622 113.821" stroke="white" stroke-width="2.6066" stroke-linecap="round"/>
<path d="M26.976 239.77C25.3417 245.637 19.2785 249.008 13.4449 247.379C7.60638 245.754 4.19863 239.686 5.85053 233.854C7.48749 228.03 13.5391 224.612 19.371 226.254" stroke="white" stroke-width="2.6066" stroke-linecap="round"/>
<path d="M21.6409 229.973C17.7158 224.603 18.9059 217.096 24.276 213.2C29.6219 209.272 37.143 210.457 41.0323 215.835C44.93 221.174 43.7656 228.698 38.411 232.58" stroke="white" stroke-width="2.6066" stroke-linecap="round"/>
<path d="M41.0558 230.181C45.8376 232.633 47.6948 238.481 45.2384 243.248C42.8134 248.011 36.9488 249.883 32.1959 247.427C27.4435 244.973 25.5491 239.131 28.0074 234.379" stroke="white" stroke-width="2.6066" stroke-linecap="round"/>
<path d="M590.766 107.764C586.386 111.654 579.726 111.217 575.86 106.858C571.988 102.5 572.397 95.8177 576.774 91.9646C581.135 88.1103 587.809 88.5029 591.667 92.8722" stroke="white" stroke-width="2.6066" stroke-linecap="round"/>
<path d="M591.563 97.0627C591.191 90.6741 596.068 85.2263 602.441 84.8773C608.81 84.4907 614.272 89.3704 614.611 95.7465C614.978 102.095 610.113 107.57 603.76 107.915" stroke="white" stroke-width="2.6066" stroke-linecap="round"/>
<path d="M607.149 107.355C609.736 111.831 608.188 117.527 603.716 120.099C599.272 122.685 593.555 121.14 590.993 116.676C588.432 112.213 589.947 106.503 594.412 103.944" stroke="white" stroke-width="2.6066" stroke-linecap="round"/>
<path d="M218.26 34.3117C223.491 25.495 234.825 22.6775 243.591 27.8849C252.367 33.0886 255.242 44.4459 249.997 53.1997C244.781 61.9467 233.445 64.8463 224.688 59.6168" stroke="white" stroke-width="2.6066" stroke-linecap="round"/>
<path d="M222.631 52.5744C226.653 63.0263 221.424 74.7048 210.986 78.6799C200.574 82.716 188.87 77.4899 184.909 67.0413C180.918 56.6538 186.113 44.9365 196.519 40.978" stroke="white" stroke-width="2.6066" stroke-linecap="round"/>
<path d="M191.168 43.7157C184.472 37.6316 184.021 27.3119 190.105 20.6433C196.137 13.9657 206.49 13.4972 213.137 19.5748C219.784 25.6504 220.299 35.9762 214.217 42.6205" stroke="white" stroke-width="2.6066" stroke-linecap="round"/>
<path d="M590.954 372.491L627.548 369.982" stroke="white" stroke-width="4.3378" stroke-linecap="round"/>
<path d="M133.266 289.168L91.4849 312.598" stroke="white" stroke-width="4.3378" stroke-linecap="round"/>
<path d="M579.322 359.837L604.284 344.674" stroke="white" stroke-width="4.3378" stroke-linecap="round"/>
<path d="M154.071 297.594L133.095 329.45" stroke="white" stroke-width="4.3378" stroke-linecap="round"/>
<path d="M524.633 464.992L533.499 500.59" stroke="white" stroke-width="4.3378" stroke-linecap="round"/>
<path d="M151.235 180.316L120.86 143.267" stroke="white" stroke-width="4.3378" stroke-linecap="round"/>
<path d="M509.018 457.826L502.255 486.245" stroke="white" stroke-width="4.3378" stroke-linecap="round"/>
<path d="M173.67 180.039L165.754 142.719" stroke="white" stroke-width="4.3378" stroke-linecap="round"/>
</svg>
