<svg xmlns="http://www.w3.org/2000/svg" width="current" height="current" fill="none" viewBox="current"><path fill="current" d="M45.0342 18.9858C44.993 18.9705 44.9475 18.9638 44.9063 18.9485C45.1811 17.3693 44.9593 15.6863 44.2995 14.4511C43.9028 13.7074 43.3601 13.1346 42.7255 12.7438C42.9624 11.4662 42.6432 10.2777 42.0951 9.38151C40.7983 7.26492 37.9978 6.19997 35.716 6.95144C34.9337 7.20909 34.257 7.65596 33.7166 8.25308C32.5573 7.71713 31.1837 7.60584 29.8538 8.04384C29.58 8.13402 29.3213 8.24813 29.0755 8.37965C28.8787 8.19878 28.6774 8.04829 28.4868 7.9304C27.2437 7.14019 25.6597 7.00427 24.0234 7.54318C22.9151 7.90819 21.86 8.5664 21.0649 9.37749C19.1686 7.94246 17.08 7.50302 15.0721 8.16432C14.1333 8.4735 13.2653 9.01952 12.492 9.78728C9.97602 12.2852 10.07 15.1159 10.9303 17.3329C9.80332 18.0582 8.98505 19.2599 8.74789 20.6243C8.56168 21.7045 8.73142 22.7904 9.21615 23.8015C7.61666 24.9569 6.64634 26.7941 6.90945 28.4707C7.06646 29.474 7.70949 30.5269 9.00324 31.098C8.5987 31.9322 8.59557 32.8004 9.08975 33.5988L18.8199 49.3853C16.798 51.4965 16.0081 53.8812 16.7596 56.163C16.8218 56.3521 16.9143 56.589 16.9832 56.7542C16.331 57.6266 15.9233 58.7364 15.8389 59.8843C15.6838 61.9805 16.6907 63.8529 18.4608 64.7514C19.6914 65.3722 21.2192 65.4472 22.7642 64.9383C23.9703 64.5411 25.0516 63.8309 25.9144 62.9181C26.6233 63.7758 27.5721 64.2871 28.668 64.367C29.8897 64.4561 31.1697 63.9983 32.0603 63.2136C32.7728 63.6655 33.7464 63.9447 34.7427 63.92C35.0944 63.9126 35.6046 63.8602 36.1718 63.6734C37.3714 63.2783 38.8184 62.2742 39.5088 59.8067C39.5902 59.5052 39.6152 59.1863 39.6143 58.8542L48.3057 50.225C48.883 49.6519 49.1767 48.8542 49.1036 48.04L46.8121 21.3342C46.7139 20.2681 46.0248 19.3605 45.0342 18.9858ZM11.4712 32.2942L16.3179 32.9237L25.6656 49.4143C24.3724 48.6912 22.9193 48.3821 21.4903 48.607L11.4712 32.2942ZM37.5118 59.2503C37.094 60.7465 36.2529 61.6377 35.0715 61.8245C34.0204 61.99 33.0887 61.5308 32.9635 61.3481C32.8325 60.9504 32.4753 60.6778 32.0587 60.6416C31.6443 60.6119 31.2484 60.8362 31.0669 61.2067C30.774 61.7873 29.7777 62.3828 28.8143 62.3099C27.9181 62.2437 27.2714 61.6184 26.8892 60.458C26.711 59.9169 26.1303 59.624 25.5892 59.8022C25.0481 59.9804 24.7552 60.561 24.9334 61.1021C24.9162 61.05 24.9034 60.9892 24.8927 60.9349C24.175 61.9372 23.1502 62.6433 22.1136 62.9847C21.1357 63.3068 20.1459 63.3075 19.3833 62.9228C16.9307 61.6854 17.6656 57.7073 20.2734 56.8485C18.4284 57.4561 17.2518 52.0625 21.1634 50.7742C22.5585 50.3147 24.005 50.6694 25.2043 51.5463C24.4864 53.2063 24.4626 54.9991 24.46 55.1228C24.4601 55.6936 24.9164 56.1576 25.4873 56.1575C26.0581 56.1574 26.5221 55.7011 26.522 55.1302C26.5253 54.1969 26.8826 51.4199 28.4407 50.9067C30.0771 50.3678 31.1843 50.8992 31.8227 51.4333C32.8138 52.2704 33.3513 53.7049 33.1599 55.0108C33.1087 55.3601 33.242 55.7209 33.519 55.9476C33.7916 56.183 34.1625 56.256 34.5015 56.1443C35.3425 55.8674 36.0442 56.3083 36.4855 56.7267C37.2988 57.5066 37.6788 58.6605 37.5118 59.2503ZM34.3368 51.2557C34.0131 50.7336 33.6176 50.2568 33.148 49.8623C32.198 49.0623 31.073 48.6523 29.8597 48.6328L23.5966 33.8724L28.836 34.5532L34.3368 51.2557ZM40.9135 53.6713L38.7352 55.834L31.4437 33.6944L35.2531 30.0334L40.9135 53.6713ZM46.3593 48.2645L43.7017 50.903L40.8003 24.8028L39.9512 25.516L44.0677 21.5588L46.3593 48.2645ZM42.7306 19.1664C42.5284 19.2763 42.3347 19.4124 42.1648 19.5767L36.0619 25.4456L29.1286 31.0532L11.2643 29.4717C7.39426 29.46 8.91392 25.7582 11.5673 24.8843C11.8933 24.777 12.2342 24.7153 12.5838 24.7013C9.53408 22.3093 10.7448 19.403 12.6159 18.7867C13.1309 18.6171 13.7039 18.6235 14.2435 18.8577C14.2435 18.8577 10.4209 14.733 13.9345 11.2489C14.479 10.7082 15.0773 10.3305 15.7097 10.1223C17.6068 9.49746 19.7979 10.4018 21.742 13.0134C21.3105 11.703 22.8877 10.0851 24.6545 9.50327C26.4082 8.92571 28.347 9.37113 28.6908 12.1702C28.8577 11.0095 29.5983 10.2959 30.4979 9.99964C31.9452 9.52298 33.8053 10.1461 34.3356 11.7564C34.5803 10.1077 35.3887 9.22715 36.3601 8.90724C38.9678 8.04841 42.7093 11.2243 39.5355 14.3797C42.5409 13.3899 43.4294 16.79 42.7306 19.1664ZM35.2046 15.7555C33.8635 15.6985 32.6027 16.2149 31.6073 17.1859C30.8618 15.6465 29.5338 14.9493 28.2991 14.8429C27.0189 14.7297 25.754 15.1897 24.8852 15.9745C23.394 14.1676 20.8628 13.6571 19.2395 14.1917C17.2381 14.8508 14.9233 17.5426 15.9603 20.6915C16.0119 20.8479 16.1004 20.985 16.215 21.0918C14.7857 21.9961 14.089 23.7864 14.6409 25.4619C14.8191 26.003 15.3997 26.2959 15.9408 26.1177C16.4819 25.9395 16.7749 25.3589 16.5966 24.8178C16.3003 23.9181 16.79 22.9475 17.6897 22.6512C18.5894 22.3549 19.56 22.8446 19.8563 23.7442C19.8799 23.8159 19.8884 23.8854 19.9118 24.0006C19.982 24.3893 20.2674 24.7073 20.6556 24.8107C21.0372 24.9162 21.4501 24.7875 21.7051 24.4867C21.9187 24.2357 22.1733 24.0651 22.4601 23.9707C23.3598 23.6744 24.3304 24.164 24.6267 25.0637C24.8049 25.6048 25.3856 25.8978 25.9267 25.7195C26.4678 25.5413 26.7607 24.9607 26.5825 24.4196C25.932 22.4442 23.7914 21.3643 21.816 22.0149C21.6661 22.0642 21.5204 22.1267 21.3769 22.1956C20.6278 21.0621 19.3147 20.4322 17.9534 20.5337C17.9801 20.3732 17.9719 20.2169 17.9183 20.0539C17.2291 17.9612 19.0252 16.4374 19.8858 16.154C20.8832 15.8255 23.1802 16.283 23.8393 18.2845C23.9832 18.7213 24.4032 19.0093 24.8591 18.9892C25.3215 18.967 25.7069 18.645 25.8192 18.1961C26.0064 17.4262 27.1026 16.8051 28.1224 16.8956C29.3202 16.9997 30.035 18.0072 30.1309 19.7245C30.1574 20.1999 30.5119 20.5962 30.9804 20.6804C31.449 20.7645 31.9144 20.5101 32.1048 20.0788C32.8555 18.343 34.149 17.7724 35.1169 17.815C36.1217 17.8598 36.9311 18.5399 37.2918 19.6352C37.47 20.1763 38.0506 20.4692 38.5917 20.291C39.1328 20.1128 39.4258 19.5322 39.2476 18.9911C38.6185 17.0809 37.0688 15.8425 35.2046 15.7555Z"/></svg>