<svg xmlns="http://www.w3.org/2000/svg" width="current" height="current" fill="none" viewBox="0 0 84 72"><path fill="current" d="M61.7 19.7C60.1 21.2 60 23.7 61.5 25.4L68.6 33.1H50V41.1H68.6L61.5 48.8C60 50.4 60.1 52.9 61.7 54.5C62.5 55.2 63.4 55.6 64.4 55.6C65.5 55.6 66.5 55.2 67.3 54.3L83.3 37L67.3 19.9C65.8 18.3 63.3 18.2 61.7 19.7Z"/><path fill="current" d="M25 37C25 34.8 26.8 33 29 33H50V8.3C50 3.7 46.3 0 41.7 0H8.3C3.7 0 0 3.7 0 8.3V63.7C0 68.3 3.7 72 8.3 72H41.7C46.3 72 50 68.3 50 63.7V41H29C26.8 41 25 39.2 25 37Z"/></svg>