<svg xmlns="http://www.w3.org/2000/svg" width="current" height="current" fill="none" viewBox="0 0 184 140"><path fill="current" d="M13.1161 0C5.8497 0 0 5.84999 0 13.1161V126.789C0 134.055 5.8497 139.905 13.1161 139.905H170.509C177.775 139.905 183.625 134.055 183.625 126.789V13.1161C183.625 5.84999 177.775 0 170.509 0H13.1161ZM8.74405 8.74405H34.9762V26.2321H8.74405V8.74405ZM148.649 8.74405H174.881V26.2321H148.649V8.74405ZM91.8125 30.8092C113.35 30.8092 130.887 48.4153 130.887 69.9524C121.873 127.447 54.0201 111.975 52.7375 69.9524C52.7375 48.4153 70.2755 30.8092 91.8125 30.8092ZM8.74405 34.9762H34.9762V52.4643H8.74405V34.9762ZM148.649 34.9762H174.881V52.4643H148.649V34.9762ZM78.6964 52.4643L113.673 69.9524L78.6964 87.4405V52.4643ZM8.74405 61.2083H34.9762V78.6964H8.74405V61.2083ZM148.649 61.2083H174.881V78.6964H148.649V61.2083ZM8.74405 87.4405H34.9762V104.929H8.74405V87.4405ZM148.649 87.4405H174.881V104.929H148.649V87.4405ZM8.74405 113.673H34.9762V131.161H8.74405V113.673ZM148.649 113.673H174.881V131.161H148.649V113.673Z"/></svg>