<svg width="100" height="83" viewBox="0 0 100 83" fill="none" xmlns="http://www.w3.org/2000/svg">
<path d="M19.234 0C15.66 0 12.754 2.9082 12.754 6.4822V8.9202H2.594C1.1617 8.9202 0 10.0802 0 11.5122C0 12.9432 1.1617 14.1052 2.5938 14.1052H12.7518V16.5412C12.7518 20.1152 15.6598 23.0232 19.2338 23.0232H29.2928C32.8668 23.0232 35.7748 20.1152 35.7748 16.5412V14.1052H97.4058C98.8378 14.1052 99.9998 12.9432 99.9998 11.5122C99.9998 10.0802 98.8378 8.9202 97.4058 8.9202H35.7748V6.4822C35.7748 2.9082 32.8668 0 29.2928 0H19.2338H19.234ZM70.707 28.879C67.133 28.879 64.225 31.787 64.225 35.361V37.799H2.594C1.1617 37.799 0 38.959 0 40.39C0 41.822 1.1617 42.984 2.5938 42.984H64.2248V45.42C64.2248 48.994 67.1328 51.9 70.7068 51.9H80.7658C84.3398 51.9 87.2478 48.994 87.2478 45.42V42.984H97.4078C98.8398 42.984 99.9998 41.822 99.9998 40.39C99.9998 38.959 98.8398 37.799 97.4078 37.799H87.2478V35.361C87.2478 31.787 84.3398 28.879 80.7658 28.879H70.7068H70.707ZM37.449 59.879C33.875 59.879 30.969 62.787 30.969 66.361V68.799H2.594C1.1617 68.799 0 69.959 0 71.39C0 72.822 1.1617 73.984 2.5938 73.984H30.9688V76.42C30.9688 79.994 33.8748 82.902 37.4488 82.902H47.5078C51.0818 82.902 53.9898 79.994 53.9898 76.42V73.984H97.4078C98.8398 73.984 99.9998 72.822 99.9998 71.39C99.9998 69.958 98.8398 68.799 97.4078 68.799H53.9898V66.361C53.9898 62.787 51.0838 59.879 47.5098 59.879H37.4488H37.449Z" fill="white"/>
</svg>
