<svg width="99" height="92" viewBox="0 0 99 92" fill="none" xmlns="http://www.w3.org/2000/svg">
<path d="M71.4007 22.6549H86.6529L78.3285 32.5717L84.3064 37.6278L98.0502 21.342C99.2794 19.8894 99.2793 17.7664 98.0782 16.3138L84.3344 0L78.3564 5.00028L86.6809 14.8332H71.4286C66.2049 14.8332 61.4001 17.515 58.6346 21.9565L31.8174 64.8081C30.4766 66.9312 28.1859 68.1882 25.6718 68.1882H0V76.0099H25.6439C30.8677 76.0099 35.6724 73.412 38.4379 68.9704L65.2551 26.0629C66.5959 23.9399 68.8866 22.6549 71.4007 22.6549Z" fill="white"/>
<path d="M98.0782 69.8364L84.3344 53.5226L78.3564 58.6067L86.6809 68.5234H71.4286C68.9145 68.5234 66.5959 67.2105 65.283 65.0875L56.9865 51.7906L50.366 55.925L58.6625 69.2218C61.4281 73.6634 66.2049 76.3451 71.4566 76.3451H86.7088L78.3843 86.1781L84.3344 91.1783L98.0782 74.8646C99.3073 73.412 99.3073 71.289 98.0782 69.8364Z" fill="white"/>
<path d="M31.7895 26.3423L40.4213 40.086L47.0418 35.9238L38.41 22.18C35.6445 17.7384 30.8397 15.1405 25.616 15.1405H0V22.9622H25.6439C28.158 22.9901 30.4486 24.1913 31.7895 26.3423Z" fill="white"/>
</svg>
