<svg xmlns="http://www.w3.org/2000/svg" width="10" height="13" fill="none" viewBox="0 0 10 13"><path fill="#fff" d="M1.875 7.37838C1.875 8.07328 2.05828 8.75259 2.40166 9.33038C2.74504 9.90817 3.23309 10.3585 3.80411 10.6244C4.37513 10.8904 5.00347 10.9599 5.60966 10.8244C6.21585 10.6888 6.77267 10.3542 7.20971 9.86281C7.64675 9.37143 7.94437 8.74538 8.06495 8.06383C8.18553 7.38227 8.12365 6.67582 7.88712 6.03381C7.6506 5.3918 7.25006 4.84307 6.73616 4.457C6.22225 4.07093 5.61807 3.86486 5 3.86486V5.62162L1.25 2.81081L5 0V1.75676C5.98891 1.75676 6.9556 2.08646 7.77785 2.70417C8.6001 3.32188 9.24096 4.19986 9.6194 5.22708C9.99783 6.25429 10.0969 7.38461 9.90392 8.4751C9.711 9.56559 9.23479 10.5673 8.53553 11.3535C7.83627 12.1397 6.94536 12.6751 5.97545 12.892C5.00555 13.1089 4.00021 12.9976 3.08658 12.5721C2.17295 12.1466 1.39206 11.4261 0.842652 10.5016C0.293245 9.57711 0 8.49023 0 7.37838H1.875Z"/></svg>