<svg width="current" height="current" viewBox="0 0 32 32" fill="none" xmlns="http://www.w3.org/2000/svg">
<path d="M2.3866e-07 16.0028C0.000318267 18.3517 0.517817 20.6717 1.51574 22.7981C2.51367 24.9245 3.96755 26.8051 5.77413 28.3064C7.58071 29.8076 9.69567 30.8926 11.9688 31.4845C14.242 32.0763 16.6175 32.1603 18.9268 31.7306C21.2361 31.301 23.4225 30.3681 25.3306 28.9983C27.2388 27.6285 28.8219 25.8553 29.9676 23.8048C31.1133 21.7542 31.7935 19.4766 31.9598 17.1335C32.1262 14.7905 31.7746 12.4396 30.93 10.2478C29.9305 11.1844 28.6595 11.7797 27.3 11.9478C28.2231 14.5136 28.2447 17.3172 27.3615 19.897C26.4782 22.4768 24.7426 24.6788 22.4407 26.1404C20.1387 27.602 17.4076 28.236 14.6971 27.938C11.9866 27.6401 9.4585 26.4279 7.52904 24.5011C5.59958 22.5743 4.38387 20.0478 4.08215 17.3377C3.78042 14.6277 4.41067 11.8957 5.8691 9.59171C7.32752 7.28772 9.52714 5.54913 12.1057 4.6623C14.6842 3.77546 17.4879 3.79326 20.055 4.71277C20.2225 3.34919 20.8196 2.07431 21.76 1.07277C19.3358 0.137348 16.7203 -0.193598 14.1396 0.108536C11.5588 0.41067 9.09045 1.33679 6.9479 2.80685C4.80534 4.2769 3.05304 6.24665 1.84249 8.54582C0.631937 10.845 -0.000448509 13.4044 2.3866e-07 16.0028V16.0028Z" fill="current"/>
<path d="M14.8399 16.6681L11.3399 13.5131L8.65991 16.5031L13.6599 21.0031C14.0297 21.3292 14.5069 21.5073 14.9999 21.5031H15.1099C15.3744 21.489 15.6335 21.4226 15.8721 21.3076C16.1107 21.1925 16.3241 21.0313 16.4999 20.8331L24.4999 11.8331L21.4999 9.1781L14.8399 16.6681Z" fill="current"/>
<path d="M26.5 8.00293C27.8807 8.00293 29 6.88364 29 5.50293C29 4.12222 27.8807 3.00293 26.5 3.00293C25.1193 3.00293 24 4.12222 24 5.50293C24 6.88364 25.1193 8.00293 26.5 8.00293Z" fill="current"/>
</svg>
