<svg xmlns="http://www.w3.org/2000/svg" width="current" height="current" fill="none" viewBox="0 0 206 142"><path fill="#fff" d="M101.391 58.6907L108.008 54.7188L101.391 50.7468V58.6907Z"/><path fill="current" d="M103 30.6425C98.2254 30.6425 93.5581 32.0583 89.5882 34.7109C85.6183 37.3635 82.5241 41.1338 80.697 45.5449C78.8698 49.956 78.3918 54.8099 79.3232 59.4927C80.2547 64.1756 82.5539 68.477 85.93 71.8531C89.3061 75.2293 93.6076 77.5284 98.2904 78.4599C102.973 79.3914 107.827 78.9133 112.238 77.0862C116.649 75.259 120.42 72.1649 123.072 68.195C125.725 64.2251 127.141 59.5577 127.141 54.7831C127.133 48.383 124.587 42.2473 120.061 37.7217C115.536 33.1962 109.4 30.6503 103 30.6425V30.6425ZM115.923 57.4708L99.8295 67.127C99.3422 67.4231 98.7847 67.584 98.2145 67.5932C97.6443 67.6024 97.082 67.4594 96.5854 67.1792C96.0887 66.8989 95.6757 66.4914 95.3889 65.9985C95.102 65.5057 94.9516 64.9453 94.9531 64.375V45.0625C94.9532 44.4939 95.1036 43.9354 95.389 43.4436C95.6745 42.9518 96.0849 42.5443 96.5786 42.2622C97.0748 41.9772 97.6386 41.8312 98.2107 41.8397C98.7828 41.8482 99.3421 42.0109 99.8295 42.3105L115.923 51.9667C116.399 52.2513 116.793 52.6544 117.067 53.1368C117.341 53.6191 117.484 54.1642 117.484 54.7188C117.484 55.2733 117.341 55.8184 117.067 56.3007C116.793 56.7831 116.399 57.1862 115.923 57.4708Z"/><path fill="current" d="M32.1875 112.656C32.1875 113.51 31.8484 114.329 31.2447 114.932C30.6411 115.536 29.8224 115.875 28.9688 115.875C28.1151 115.875 27.2964 115.536 26.6928 114.932C26.0891 114.329 25.75 113.51 25.75 112.656V109.437H0V119.094C0.00202882 121.654 1.02003 124.109 2.83049 125.92C4.64095 127.73 7.09588 128.748 9.65625 128.75H86.9062V135.187H69.2031C68.3495 135.187 67.5308 135.527 66.9271 136.13C66.3235 136.734 65.9844 137.553 65.9844 138.406C65.9844 139.26 66.3235 140.079 66.9271 140.682C67.5308 141.286 68.3495 141.625 69.2031 141.625H136.797C137.651 141.625 138.469 141.286 139.073 140.682C139.677 140.079 140.016 139.26 140.016 138.406C140.016 137.553 139.677 136.734 139.073 136.13C138.469 135.527 137.651 135.187 136.797 135.187H119.094V128.75H196.344C198.904 128.748 201.359 127.73 203.17 125.92C204.98 124.109 205.998 121.654 206 119.094V109.437H32.1875V112.656ZM93.3438 128.75H112.656V135.187H93.3438V128.75Z"/><path fill="current" d="M196.344 0H9.65625C7.09588 0.00202882 4.64095 1.02003 2.83049 2.83049C1.02003 4.64095 0.00202882 7.09588 0 9.65625L0 103H25.75V99.7812C25.75 98.9276 26.0891 98.1089 26.6928 97.5052C27.2964 96.9016 28.1151 96.5625 28.9688 96.5625C29.8224 96.5625 30.6411 96.9016 31.2447 97.5052C31.8484 98.1089 32.1875 98.9276 32.1875 99.7812V103H206V9.65625C205.998 7.09588 204.98 4.64095 203.17 2.83049C201.359 1.02003 198.904 0.00202882 196.344 0V0ZM103 85.3613C96.9522 85.3613 91.0402 83.5679 86.0117 80.2079C80.9832 76.8479 77.0639 72.0723 74.7495 66.4849C72.4351 60.8974 71.8296 54.7492 73.0094 48.8176C74.1893 42.8861 77.1016 37.4376 81.378 33.1611C85.6544 28.8847 91.1029 25.9724 97.0345 24.7925C102.966 23.6127 109.114 24.2182 114.702 26.5326C120.289 28.847 125.065 32.7663 128.425 37.7948C131.785 42.8234 133.578 48.7353 133.578 54.7831C133.571 62.8907 130.347 70.6641 124.614 76.397C118.881 82.1299 111.108 85.3539 103 85.3613Z"/></svg>