<svg xmlns="http://www.w3.org/2000/svg" width="current" height="current" fill="none" viewBox="0 0 29 32"><path fill="current" d="M14.334 0C10.1961 0 6.83057 3.75168 6.83057 8.36409C6.83057 12.9875 10.1961 16.7393 14.334 16.7393C18.4719 16.7393 21.8374 12.9875 21.8374 8.36409C21.8374 3.75168 18.4719 0 14.334 0Z"/><path fill="current" d="M20.149 18.9021C19.9283 18.869 19.6965 18.9683 19.5862 19.1669C18.3835 21.109 16.4193 22.2786 14.3338 22.2786C12.2483 22.2786 10.2841 21.109 9.08136 19.1669C8.97104 18.9683 8.73929 18.869 8.51866 18.9021C3.58621 19.8179 0 24.1214 0 29.1531V29.8814C0 31.0511 0.94895 32 2.1186 32H26.549C27.7186 32 28.6676 31.0511 28.6676 29.8814V29.1531C28.6676 24.1214 25.0814 19.8179 20.149 18.9021Z"/></svg>