<svg xmlns="http://www.w3.org/2000/svg" width="current" height="current" fill="none" viewBox="0 0 88 82"><path fill="current" d="M87.528 40.8C87.528 63.3 69.228 81.6 46.728 81.6C30.128 81.6 15.328 71.7 8.92802 56.4C8.12802 54.6 9.02802 52.5 10.828 51.8C12.628 51.1 14.728 51.9 15.428 53.7C20.628 66.4 32.928 74.6 46.628 74.6C65.228 74.6 80.428 59.4 80.428 40.8C80.428 22.2 65.228 7 46.628 7C31.928 7 19.328 16.3 14.628 29.7L15.828 28.4C17.128 27 19.328 26.9 20.828 28.2C22.228 29.5 22.328 31.7 21.028 33.2L11.928 43.2C11.228 43.9 10.328 44.4 9.32802 44.4C9.12802 44.4 8.92802 44.4 8.82802 44.4C7.62802 44.2 6.62802 43.5 6.12802 42.4L0.328021 30C-0.471979 28.2 0.228021 26.1 2.02802 25.3C3.82802 24.5 5.92802 25.2 6.72802 27L7.52802 28.8C12.728 11.8 28.428 0 46.628 0C69.128 0 87.528 18.3 87.528 40.8ZM47.828 21.3C47.828 19.4 46.228 17.8 44.328 17.8C42.428 17.8 40.828 19.4 40.828 21.3V40.8C40.828 41.7 41.128 42.6 41.828 43.3L55.628 57.1C56.328 57.8 57.228 58.1 58.128 58.1C59.028 58.1 59.928 57.8 60.628 57.1C62.028 55.7 62.028 53.5 60.628 52.1L47.828 39.3V21.3Z"/></svg>