<svg width="89" height="107" viewBox="0 0 89 107" fill="none" xmlns="http://www.w3.org/2000/svg">
<path fill-rule="evenodd" clip-rule="evenodd" d="M12.6304 0C19.6055 0 25.2598 5.53936 25.2598 12.3729C25.2598 19.2065 19.6055 24.7459 12.6304 24.7459C5.65541 24.7459 0 19.2065 0 12.3729C0 5.53936 5.65541 0 12.6304 0Z" fill="current"/>
<path fill-rule="evenodd" clip-rule="evenodd" d="M76.3706 0C83.3456 0 88.9999 5.53936 88.9999 12.3729C88.9999 19.2065 83.3456 24.7459 76.3706 24.7459C69.3955 24.7459 63.7412 19.2065 63.7412 12.3729C63.7412 5.53936 69.3955 0 76.3706 0Z" fill="current"/>
<path fill-rule="evenodd" clip-rule="evenodd" d="M35.7198 12.7122H35.7253C35.7209 12.5984 35.7076 12.4879 35.7076 12.3729C35.7076 7.71443 39.5725 3.9379 44.3405 3.9379C49.1084 3.9379 52.9733 7.71443 52.9733 12.3729L53.3889 21.0202C55.6214 18.7898 57.003 15.7405 57.003 12.3729C57.003 5.53936 51.3343 0 44.3416 0C37.3488 0 31.6802 5.53936 31.6802 12.3729C31.6802 15.7715 33.0838 18.8484 35.3539 21.0854L35.7198 12.7122Z" fill="current"/>
<path d="M37.2269 50.2222L16.5958 58.8518C12.0147 60.7671 9.23283 65.4499 9.74565 70.3792L15.8829 99.3813C16.6135 102.832 19.6164 105.335 23.1486 105.438L45.6586 106.098C49.5954 106.199 53.267 104.126 55.2055 100.706L76.2953 63.5047C77.5486 61.2932 76.807 58.4882 74.6242 57.1818C72.7653 56.0688 70.3846 56.3706 68.8627 57.9123L58.7124 68.1942C56.1903 70.7484 51.8302 69.0618 51.692 65.4798L49.6452 12.2624C49.5369 9.44626 47.217 7.21924 44.3932 7.21924C41.5925 7.21924 39.2837 9.40978 39.1434 12.2005L37.2269 50.2222Z" fill="current"/>
</svg>
