<svg width="128" height="128" viewBox="0 0 128 128" fill="none" xmlns="http://www.w3.org/2000/svg">
<path d="M80.7808 51.4869L51.2192 37.3736C49.2339 36.4258 46.6172 35.9517 44 35.9517C41.3828 35.9517 38.7661 36.4258 36.7808 37.3736L7.21924 51.4869C3.24854 53.3829 0 58.5337 0 62.9336V96.9292C0 101.329 3.12988 106.708 6.95605 108.881L37.0439 125.975C38.957 127.062 41.4785 127.605 44 127.605C46.5215 127.605 49.043 127.062 50.9561 125.975L81.0439 108.881C84.8701 106.708 88 101.329 88 96.9292V62.9336C88 58.5337 84.7515 53.3829 80.7808 51.4869ZM44 52.5933C47.8657 52.5933 51 54.3843 51 56.5943C51 58.8023 47.8657 60.5933 44 60.5933C40.1343 60.5933 37 58.8023 37 56.5943C37 54.3843 40.1343 52.5933 44 52.5933ZM15.7881 103.613C15.3613 103.825 14.9058 103.927 14.438 103.927C12.3936 103.927 10.1035 101.997 8.85059 98.9922C7.31006 95.2998 7.91992 91.3819 10.2109 90.2408C10.6382 90.0279 11.0938 89.9268 11.562 89.9268C13.6069 89.9268 15.897 91.8565 17.1494 94.8609C18.6899 98.5533 18.0801 102.471 15.7881 103.613ZM15.7881 81.6128C15.3613 81.8252 14.9058 81.9268 14.438 81.9268C12.3936 81.9268 10.1035 79.9966 8.85059 76.9922C7.31006 73.2998 7.91992 69.3819 10.2109 68.2408C10.6382 68.0279 11.0938 67.9268 11.562 67.9268C13.6069 67.9268 15.897 69.8565 17.1494 72.8609C18.6899 76.5533 18.0801 80.4712 15.7881 81.6128ZM35.7881 114.613C35.3613 114.825 34.9058 114.927 34.438 114.927C32.3936 114.927 30.1035 112.997 28.8506 109.992C27.3101 106.3 27.9199 102.382 30.2109 101.241C30.6382 101.028 31.0938 100.927 31.562 100.927C33.6069 100.927 35.897 102.856 37.1494 105.861C38.6899 109.553 38.0801 113.471 35.7881 114.613ZM35.7881 92.6128C35.3613 92.8252 34.9058 92.9268 34.438 92.9268C32.3936 92.9268 30.1035 90.9966 28.8506 87.9922C27.3101 84.2998 27.9199 80.3819 30.2109 79.2408C30.6382 79.0279 31.0938 78.9268 31.562 78.9268C33.6069 78.9268 35.897 80.8565 37.1494 83.8609C38.6899 87.5533 38.0801 91.4712 35.7881 92.6128ZM59.1494 109.992C57.8965 112.997 55.6064 114.927 53.562 114.927C53.0942 114.927 52.6387 114.825 52.2119 114.613C49.9199 113.471 49.3101 109.553 50.8506 105.861C52.103 102.856 54.3931 100.927 56.438 100.927C56.9063 100.927 57.3618 101.028 57.7891 101.241C60.0801 102.382 60.6899 106.3 59.1494 109.992ZM59.1494 87.9922C57.8965 90.9966 55.6064 92.9268 53.562 92.9268C53.0942 92.9268 52.6387 92.8252 52.2119 92.6128C49.9199 91.4712 49.3101 87.5533 50.8506 83.8609C52.103 80.8565 54.3931 78.9268 56.438 78.9268C56.9063 78.9268 57.3618 79.0279 57.7891 79.2408C60.0801 80.3819 60.6899 84.2998 59.1494 87.9922ZM79.1494 98.9922C77.8965 101.997 75.6064 103.927 73.562 103.927C73.0942 103.927 72.6387 103.825 72.2119 103.613C69.9199 102.471 69.3101 98.5533 70.8506 94.8609C72.103 91.8565 74.3931 89.9268 76.438 89.9268C76.9063 89.9268 77.3618 90.0279 77.7891 90.2408C80.0801 91.3819 80.6899 95.2998 79.1494 98.9922ZM79.1494 76.9922C77.8965 79.9966 75.6064 81.9268 73.562 81.9268C73.0942 81.9268 72.6387 81.8252 72.2119 81.6128C69.9199 80.4712 69.3101 76.5533 70.8506 72.8609C72.103 69.8565 74.3931 67.9268 76.438 67.9268C76.9063 67.9268 77.3618 68.0279 77.7891 68.2408C80.0801 69.3819 80.6899 73.2998 79.1494 76.9922ZM82.0918 60.2227L46 80.1065V121.927C46 123.031 45.1045 123.927 44 123.927C42.8955 123.927 42 123.031 42 121.927V80.2583L5.61865 59.9283C4.65332 59.3907 4.30664 58.1729 4.84375 57.2081C5.38135 56.2437 6.59863 55.8975 7.56396 56.4331L43.8633 76.7173L80.1572 56.7217C81.1255 56.1885 82.3413 56.5386 82.875 57.5049C83.4092 58.4717 83.0586 59.6885 82.0918 60.2227Z" fill="current"/>
<path d="M116.338 21.7979C114.872 17.6499 110.277 13.0557 106.129 11.5884L75.0469 0.5943C73.9063 0.191 72.6313 0 71.3159 0C67.8472 0 64.104 1.3277 61.8481 3.5835L37.6567 27.7749C36.0781 29.3536 34.8936 31.6812 34.2603 34.1446L35.0576 33.7637C37.5049 32.5953 40.6807 31.9517 44 31.9517C44.2974 31.9517 44.5918 31.9629 44.8867 31.9732C46.0605 30.6978 47.4219 29.9268 48.6802 29.9268C49.0146 29.9268 49.3418 29.98 49.6553 30.0914C50.8652 30.521 51.6343 31.73 51.896 33.3164C52.2568 33.4561 52.6079 33.604 52.9429 33.7642L65.5649 39.7901C66.9238 37.4434 68.9053 35.9268 70.6802 35.9268C71.0151 35.9263 71.3418 35.98 71.6558 36.0914C73.8213 36.8594 74.5845 40.1163 73.5234 43.5894L78.731 46.0757L79.7588 45.0381L68.8994 6.2383C68.5996 5.1753 69.2183 4.0704 70.2813 3.7706C71.3477 3.4717 72.4497 4.0894 72.749 5.1524L83.7168 44.3374L122.642 55.439C123.704 55.7422 124.319 56.8492 124.016 57.9112C123.765 58.7896 122.964 59.3623 122.094 59.3623C121.931 59.3623 90.2305 50.3482 83.5723 48.4541C85.8096 49.7886 87.791 51.8262 89.269 54.1807C90.5249 54.5298 91.4683 55.2359 91.835 56.271C92.1543 57.1705 91.9941 58.1797 91.4658 59.1651C91.8062 60.4234 92 61.6939 92 62.9336V94.0108C95.0903 93.565 98.1953 92.2266 100.152 90.2701L124.343 66.0787C127.455 62.9673 128.799 57.0279 127.332 52.8799L116.338 21.7979ZM67.2354 23.2149C65.9658 26.0171 63.4819 27.9268 61.3193 27.9268C60.9844 27.9268 60.6577 27.8809 60.3438 27.7857C58.0044 27.0743 57.2983 23.8736 58.7651 20.6382C60.0342 17.8365 62.5181 15.9268 64.6802 15.9268C65.0151 15.9268 65.3423 15.9727 65.6558 16.0679C67.9956 16.7793 68.7026 19.98 67.2354 23.2149ZM102.207 37.1363C101.672 37.6719 100.92 37.9268 100.052 37.9268C98.2573 37.9268 95.9614 36.8409 94.0234 34.9029C91.147 32.0264 90.1479 28.3614 91.7905 26.7188C92.3276 26.1817 93.0796 25.9268 93.9497 25.9268C95.7437 25.9268 98.0386 27.0127 99.9761 28.9502C102.853 31.8267 103.852 35.4913 102.207 37.1363ZM108.503 69.1622C107.171 69.6797 105.844 69.9268 104.648 69.9268C102.455 69.9268 100.702 69.0967 100.165 67.5835C99.335 65.2432 101.722 62.1578 105.497 60.6914C106.829 60.1739 108.156 59.9268 109.352 59.9268C111.545 59.9268 113.299 60.7574 113.835 62.2715C114.665 64.6104 112.279 67.6958 108.503 69.1622Z" fill="current"/>
</svg>
