<svg width="current" height="current" viewBox="0 0 78 78" fill="none" xmlns="http://www.w3.org/2000/svg">
<path d="M32.5747 67.075C32.5747 67.175 32.6747 67.375 32.6747 67.475L37.0747 76.275C37.7747 77.575 39.5747 77.575 40.2747 76.275L44.6747 67.475C44.7747 67.375 44.7747 67.175 44.7747 67.075C42.7747 67.475 40.7747 67.775 38.6747 67.775C36.5747 67.775 34.4747 67.475 32.5747 67.075Z" fill="current"/>
<path d="M40.2747 0.975C39.5747 -0.325 37.7747 -0.325 37.0747 0.975L32.6747 9.675C32.5747 9.775 32.5747 9.975 32.5747 10.075C34.5747 9.675 36.5747 9.475 38.6747 9.475C40.7747 9.475 42.8747 9.675 44.7747 10.075C44.7747 9.975 44.6747 9.775 44.6747 9.675L40.2747 0.975Z" fill="current"/>
<path d="M9.775 32.575L0.975 36.975C-0.325 37.675 -0.325 39.475 0.975 40.175L9.775 44.575C9.875 44.675 10.075 44.675 10.175 44.675C9.775 42.675 9.475 40.675 9.475 38.575C9.475 36.475 9.675 34.375 10.175 32.475C10.075 32.475 9.975 32.475 9.775 32.575Z" fill="current"/>
<path d="M76.2748 36.975L67.5748 32.575C67.4748 32.475 67.2748 32.475 67.1748 32.475C67.5748 34.475 67.8748 36.475 67.8748 38.575C67.8748 40.675 67.6748 42.775 67.1748 44.675C67.2748 44.675 67.4748 44.575 67.5748 44.575L76.3748 40.175C77.6748 39.475 77.6748 37.675 76.2748 36.975Z" fill="current"/>
<path d="M14.175 54.375C14.075 54.475 14.075 54.675 13.975 54.775L10.875 64.075C10.375 65.475 11.775 66.775 13.175 66.375L22.475 63.275C22.575 63.275 22.775 63.175 22.875 63.075C19.375 60.775 16.475 57.875 14.175 54.375Z" fill="current"/>
<path d="M64.1746 10.875L54.8746 13.975C54.7746 13.975 54.5746 14.075 54.4746 14.175C57.9746 16.375 60.8746 19.375 63.1746 22.875C63.2746 22.775 63.2746 22.575 63.3746 22.475L66.4746 13.175C66.8746 11.675 65.5746 10.375 64.1746 10.875Z" fill="current"/>
<path d="M13.9747 22.375C13.9747 22.475 14.0747 22.675 14.1747 22.775C16.3747 19.275 19.3747 16.275 22.8747 14.075C22.7747 13.975 22.5747 13.975 22.4747 13.875L13.1747 10.775C11.7747 10.275 10.4747 11.675 10.8747 13.075L13.9747 22.375Z" fill="current"/>
<path d="M63.3746 54.775C63.3746 54.675 63.2746 54.475 63.1746 54.375C60.9746 57.875 57.9746 60.775 54.4746 63.075C54.5746 63.175 54.7746 63.175 54.8746 63.275L64.1746 66.375C65.5746 66.875 66.8746 65.475 66.4746 64.075L63.3746 54.775Z" fill="current"/>
<path d="M38.6746 62.775C52.0746 62.775 62.8746 51.875 62.8746 38.575C62.8746 25.175 51.9746 14.375 38.6746 14.375C25.3746 14.375 14.4746 25.175 14.4746 38.575C14.4746 51.975 25.2746 62.775 38.6746 62.775ZM45.7746 22.975C45.3746 22.675 45.6746 22.075 46.0746 22.175C52.6746 24.175 57.4746 30.775 57.4746 38.575C57.4746 46.375 52.6746 52.975 46.0746 54.975C45.6746 55.075 45.3746 54.475 45.7746 54.175C50.5746 50.975 53.7746 45.175 53.7746 38.575C53.7746 31.975 50.5746 26.175 45.7746 22.975Z" fill="current"/>
</svg>
