<svg width="current" height="current" viewBox="0 0 96 98" fill="none" xmlns="http://www.w3.org/2000/svg">
<path d="M10.2401 91.8866H18.9201V94.8866C18.9201 95.4966 19.1624 96.0816 19.5937 96.513C20.0251 96.9443 20.6101 97.1866 21.2201 97.1866H28.0301C28.6401 97.1866 29.2251 96.9443 29.6564 96.513C30.0878 96.0816 30.3301 95.4966 30.3301 94.8866V91.8866H64.9001V94.8866C64.9001 95.4966 65.1424 96.0816 65.5737 96.513C66.0051 96.9443 66.5901 97.1866 67.2001 97.1866H74.0101C74.6201 97.1866 75.2051 96.9443 75.6364 96.513C76.0678 96.0816 76.3101 95.4966 76.3101 94.8866V91.8866H84.9901C86.3373 91.8853 87.6711 91.6182 88.9149 91.1005C90.1588 90.5828 91.2882 89.8247 92.2386 88.8697C93.1889 87.9148 93.9414 86.7816 94.4531 85.5353C94.9647 84.2889 95.2253 82.9539 95.2201 81.6066V28.9666C95.2201 26.2508 94.1412 23.6462 92.2208 21.7259C90.3005 19.8055 87.6959 18.7266 84.9801 18.7266H62.5101C61.4825 16.9933 60.1631 15.4506 58.6101 14.1666L67.1701 5.60663C67.7626 4.99741 68.093 4.18032 68.0903 3.33046C68.0877 2.48061 67.7522 1.6656 67.1559 1.0601C66.5595 0.454594 65.7497 0.106773 64.9 0.0911709C64.0503 0.0755688 63.2283 0.393427 62.6101 0.976629L52.6101 10.9766C49.3879 10.0086 45.9523 10.0086 42.7301 10.9766L32.7301 0.976629C32.1161 0.356023 31.2807 0.00473594 30.4078 4.75354e-05C29.5348 -0.00464087 28.6957 0.337653 28.0751 0.95163C27.4545 1.56561 27.1032 2.40097 27.0985 3.27395C27.0938 4.14693 27.4361 4.98602 28.0501 5.60663L36.6501 14.2066C35.0789 15.4861 33.7423 17.0291 32.7001 18.7666H10.2401C7.53118 18.7666 4.93264 19.84 3.01341 21.7517C1.09418 23.6634 0.0106598 26.2578 7.81322e-05 28.9666V81.6066C-0.00518792 82.9547 0.255791 84.2906 0.768041 85.5376C1.28029 86.7846 2.03373 87.9182 2.98513 88.8733C3.93652 89.8284 5.06715 90.5862 6.31214 91.1033C7.55713 91.6205 8.89197 91.8866 10.2401 91.8866V91.8866ZM81.8501 41.8866C82.5364 41.8866 83.2073 42.0901 83.7779 42.4714C84.3485 42.8527 84.7933 43.3947 85.0559 44.0287C85.3186 44.6628 85.3873 45.3605 85.2534 46.0336C85.1195 46.7067 84.789 47.325 84.3037 47.8103C83.8184 48.2956 83.2002 48.6261 82.527 48.76C81.8539 48.8938 81.1562 48.8251 80.5222 48.5625C79.8881 48.2999 79.3462 47.8551 78.9649 47.2845C78.5836 46.7138 78.3801 46.0429 78.3801 45.3566C78.3906 44.4433 78.7608 43.5709 79.4105 42.9288C80.0601 42.2867 80.9367 41.9266 81.8501 41.9266V41.8866ZM81.8501 51.7466C82.5364 51.7466 83.2073 51.9501 83.7779 52.3314C84.3485 52.7127 84.7933 53.2547 85.0559 53.8887C85.3186 54.5228 85.3873 55.2205 85.2534 55.8936C85.1195 56.5667 84.789 57.185 84.3037 57.6703C83.8184 58.1556 83.2002 58.4861 82.527 58.62C81.8539 58.7538 81.1562 58.6851 80.5222 58.4225C79.8881 58.1599 79.3462 57.7151 78.9649 57.1445C78.5836 56.5738 78.3801 55.9029 78.3801 55.2166C78.3906 54.3033 78.7608 53.4309 79.4105 52.7888C80.0601 52.1467 80.9367 51.7866 81.8501 51.7866V51.7466ZM81.8501 61.6066C82.5364 61.6066 83.2073 61.8101 83.7779 62.1914C84.3485 62.5727 84.7933 63.1147 85.0559 63.7487C85.3186 64.3828 85.3873 65.0805 85.2534 65.7536C85.1195 66.4267 84.789 67.045 84.3037 67.5303C83.8184 68.0156 83.2002 68.3461 82.527 68.4799C81.8539 68.6138 81.1562 68.5451 80.5222 68.2825C79.8881 68.0199 79.3462 67.5751 78.9649 67.0045C78.5836 66.4338 78.3801 65.7629 78.3801 65.0766C78.3801 64.1563 78.7457 63.2737 79.3964 62.623C80.0472 61.9722 80.9298 61.6066 81.8501 61.6066V61.6066ZM11.4501 36.3266C11.4501 34.8706 12.0285 33.4742 13.0581 32.4446C14.0876 31.415 15.484 30.8366 16.9401 30.8366H64.0501C65.5061 30.8366 66.9025 31.415 67.9321 32.4446C68.9617 33.4742 69.5401 34.8706 69.5401 36.3266V74.3266C69.5401 75.7827 68.9617 77.1791 67.9321 78.2086C66.9025 79.2382 65.5061 79.8166 64.0501 79.8166H16.9401C15.484 79.8166 14.0876 79.2382 13.0581 78.2086C12.0285 77.1791 11.4501 75.7827 11.4501 74.3266V36.3266ZM27.3001 57.7666C26.5209 56.9866 26.0832 55.9292 26.0832 54.8266C26.0832 53.7241 26.5209 52.6667 27.3001 51.8866V51.8866C28.0801 51.1074 29.1375 50.6698 30.2401 50.6698C31.3426 50.6698 32.4001 51.1074 33.1801 51.8866L37.3101 56.0166L47.8101 45.5066C48.5901 44.7274 49.6475 44.2898 50.7501 44.2898C51.8526 44.2898 52.9101 44.7274 53.6901 45.5066V45.5066C54.4693 46.2867 54.9069 47.3441 54.9069 48.4466C54.9069 49.5492 54.4693 50.6066 53.6901 51.3866L39.7801 65.2866C39.4535 65.618 39.0643 65.8811 38.6351 66.0608C38.2059 66.2404 37.7453 66.3329 37.2801 66.3329C36.8148 66.3329 36.3542 66.2404 35.925 66.0608C35.4958 65.8811 35.1066 65.618 34.7801 65.2866L27.3001 57.7666Z" fill="current"/>
</svg>
